# xmcd
#
# Track frame offsets:
#	150
#	11061
#	23586
#	35559
#	43566
#	58865
#	68813
#	85437
#	98335
#	109326
#	118692
#	127213
#
# Disc length: 1834 seconds
#
# Revision: 0
# Processed by: cddbd v1.5.2PL0 Copyright (c) Steve Scherf et al.
# Submitted via: dBpowerAMP V4.0
#
DISCID=a107280c
DTITLE=The Staples Singers - The 25th day of December
DYEAR=2007
DGENRE=R&B
TTITLE0=The Last Month of the Year
TTITLE1=The Virgin Mary had a son
TTITLE2=Go tell it on the Mountain
TTITLE3=Joy to the World
TTITLE4=Holy unto the Lord
TTITLE5=The Savior is Born
TTITLE6=Sweet Little Jesus Boy
TTITLE7=No Room At the Inn
TTITLE8=There was a Star
TTITLE9=O little town of Bethlehem
TTITLE10=Wasn't that a Mighty Day
TTITLE11=Silent Night
EXTD=
EXTT0=
EXTT1=
EXTT2=
EXTT3=
EXTT4=
EXTT5=
EXTT6=
EXTT7=
EXTT8=
EXTT9=
EXTT10=
EXTT11=
PLAYORDER=
